<svg xmlns="http://www.w3.org/2000/svg" version="1.1" xmlns:xlink="http://www.w3.org/1999/xlink" xmlns:svgjs="http://svgjs.dev/svgjs" width="2000" height="1252" viewBox="0 0 2000 1252"><g transform="matrix(1,0,0,1,-1.2121212121212466,219.34805490387726)"><svg viewBox="0 0 396 248" data-background-color="#1f2833" preserveAspectRatio="xMidYMid meet" height="1252" width="2000" xmlns="http://www.w3.org/2000/svg" xmlns:xlink="http://www.w3.org/1999/xlink"><g id="tight-bounds" transform="matrix(1,0,0,1,0.2400000000000091,0.4000000000000057)"><svg viewBox="0 0 395.52 247.2" height="247.2" width="395.52"><g><svg></svg></g><g><svg viewBox="0 0 395.52 247.2" height="247.2" width="395.52"><g transform="matrix(1,0,0,1,75.54432,81.34699539033457)"><svg viewBox="0 0 244.43135999999998 84.50600921933085" height="84.50600921933085" width="244.43135999999998"><g><svg viewBox="0 0 244.43135999999998 84.50600921933085" height="84.50600921933085" width="244.43135999999998"><g><svg viewBox="0 0 244.43135999999998 84.50600921933085" height="84.50600921933085" width="244.43135999999998"><g><svg viewBox="0 0 244.43135999999998 84.50600921933085" height="84.50600921933085" width="244.43135999999998"><g id="textblocktransform"><svg viewBox="0 0 244.43135999999998 84.50600921933085" height="84.50600921933085" width="244.43135999999998" id="textblock"><g><svg viewBox="0 0 244.43135999999998 84.50600921933085" height="84.50600921933085" width="244.43135999999998"><g transform="matrix(1,0,0,1,0,0)"><svg width="244.43135999999998" viewBox="3.83 -33.52 114.31 39.52000000000001" height="84.50600921933085" data-palette-color="#ffffff"><path d="M7.98-31.95L7.98 0 3.83 0 3.83-31.95 7.98-31.95ZM19.07 0L15.05 0 16.27-31.95 22.7-31.95 30.27-8.85 30.62-8.85 38.2-31.95 44.65-31.95 45.87 0 41.85 0 41.4-13.48 40.97-27.63 40.52-27.63 32.62-3.68 28.3-3.68 20.4-27.63 19.95-27.63 19.5-13.45 19.07 0ZM57.05 0L52.9 0 52.9-31.95 57.05-31.95 57.05 0ZM71.72-13.38L55.25-13.38 55.25-16.85 71.72-16.85 71.72-13.38ZM72.09-28.48L54.1-28.48 54.1-31.95 72.09-31.95 72.09-28.48ZM78.72 6L74.94 6 90.37-33.52 94.14-33.52 78.72 6ZM115.17-15.3L115.17-15.78 98.29-20.33 98.29-23.85 118.14-18.28 118.14-12.8 98.29-7.2 98.29-10.75 115.17-15.3Z" opacity="1" transform="matrix(1,0,0,1,0,0)" fill="#ffffff" class="wordmark-text-0" data-fill-palette-color="primary" id="text-0"></path></svg></g></svg></g></svg></g></svg></g><g></g></svg></g></svg></g></svg></g><g><path d="M92.558 61.397A122.216 122.216 0 0 1 302.962 61.397L295.341 61.397A114.595 114.595 0 0 0 100.179 61.397L92.558 61.397M92.558 185.803A122.216 122.216 0 0 0 302.962 185.803L295.341 185.803A114.595 114.595 0 0 1 100.179 185.803L92.558 185.803" fill="#67fcf0" stroke="transparent" data-fill-palette-color="tertiary"></path></g></svg></g><defs></defs></svg><rect width="395.52" height="247.2" fill="none" stroke="none" visibility="hidden"></rect></g></svg></g></svg>