<svg xmlns="http://www.w3.org/2000/svg" version="1.1" xmlns:xlink="http://www.w3.org/1999/xlink" xmlns:svgjs="http://svgjs.dev/svgjs" width="2000" height="1252" viewBox="0 0 2000 1252"><g transform="matrix(1,0,0,1,-1.2121212121212466,-2.01935483870966)"><svg viewBox="0 0 396 248" data-background-color="#1f2833" preserveAspectRatio="xMidYMid meet" height="1252" width="2000" xmlns="http://www.w3.org/2000/svg" xmlns:xlink="http://www.w3.org/1999/xlink"><g id="tight-bounds" transform="matrix(1,0,0,1,0.2400000000000091,0.4000000000000057)"><svg viewBox="0 0 395.52 247.2" height="247.2" width="395.52"><g><svg></svg></g><g><svg viewBox="0 0 395.52 247.2" height="247.2" width="395.52"><g><path d="M55.039 247.2l26.403-45.732 7.584 0-22.403 38.804h262.274l-22.403-38.804 7.584 0 26.403 45.732zM197.76 0l26.403 45.732-7.583 0-18.82-32.596-18.82 32.596-7.583 0z" fill="#67fcf0" fill-rule="nonzero" stroke="none" stroke-width="1" stroke-linecap="butt" stroke-linejoin="miter" stroke-miterlimit="10" stroke-dasharray="" stroke-dashoffset="0" font-family="none" font-weight="none" font-size="none" text-anchor="none" style="mix-blend-mode: normal" data-fill-palette-color="tertiary"></path></g><g transform="matrix(1,0,0,1,36.88064516129032,67.97999999999999)"><svg viewBox="0 0 321.75870967741935 111.24" height="111.24" width="321.75870967741935"><g><svg viewBox="0 0 321.75870967741935 111.24" height="111.24" width="321.75870967741935"><g><svg viewBox="0 0 321.75870967741935 111.24" height="111.24" width="321.75870967741935"><g><svg viewBox="0 0 321.75870967741935 111.24" height="111.24" width="321.75870967741935"><g id="textblocktransform"><svg viewBox="0 0 321.75870967741935 111.24" height="111.24" width="321.75870967741935" id="textblock"><g><svg viewBox="0 0 321.75870967741935 111.24" height="111.24" width="321.75870967741935"><g transform="matrix(1,0,0,1,0,0)"><svg width="321.75870967741935" viewBox="3.83 -33.52 114.31 39.52000000000001" height="111.24" data-palette-color="#ffffff"><path d="M7.98-31.95L7.98 0 3.83 0 3.83-31.95 7.98-31.95ZM19.07 0L15.05 0 16.27-31.95 22.7-31.95 30.27-8.85 30.62-8.85 38.2-31.95 44.65-31.95 45.87 0 41.85 0 41.4-13.48 40.97-27.63 40.52-27.63 32.62-3.68 28.3-3.68 20.4-27.63 19.95-27.63 19.5-13.45 19.07 0ZM57.05 0L52.9 0 52.9-31.95 57.05-31.95 57.05 0ZM71.72-13.38L55.25-13.38 55.25-16.85 71.72-16.85 71.72-13.38ZM72.09-28.48L54.1-28.48 54.1-31.95 72.09-31.95 72.09-28.48ZM78.72 6L74.94 6 90.37-33.52 94.14-33.52 78.72 6ZM115.17-15.3L115.17-15.78 98.29-20.33 98.29-23.85 118.14-18.28 118.14-12.8 98.29-7.2 98.29-10.75 115.17-15.3Z" opacity="1" transform="matrix(1,0,0,1,0,0)" fill="#ffffff" class="wordmark-text-0" data-fill-palette-color="primary" id="text-0"></path></svg></g></svg></g></svg></g></svg></g><g></g></svg></g></svg></g></svg></g></svg></g><defs></defs></svg><rect width="395.52" height="247.2" fill="none" stroke="none" visibility="hidden"></rect></g></svg></g></svg>